<?xml version="1.0" encoding="utf-8"?>
<!-- Svg Vector Icons : http://www.onlinewebfonts.com/icon -->
<!DOCTYPE svg PUBLIC "-//W3C//DTD SVG 1.1//EN" "http://www.w3.org/Graphics/SVG/1.1/DTD/svg11.dtd">
<svg version="1.1" xmlns="http://www.w3.org/2000/svg" xmlns:xlink="http://www.w3.org/1999/xlink" x="0px" y="0px" viewBox="0 0 1000 1000" enable-background="new 0 0 1000 1000" xml:space="preserve">
<metadata> Svg Vector Icons : http://www.onlinewebfonts.com/icon </metadata>
<g><g><g><path d="M791.7,880.6c-34-13.7-73.2-20.6-116.5-20.6c-106.3,0-207.5,40.8-237.9,54.2V719.6l14.2,15.6V442.8c53.7-45.1,118.8-69.4,194-72.3L660,346c-88.4,0.1-164.7,27.1-226.8,80.4c-62.2-53.4-138.6-80.4-227.3-80.4c-82.9,0-145,24.1-147.5,25.2l-7.6,3V423c-25.1,4.6-40.8,13-40.8,26.8c0,71.4,0,504.4,0,504.4h371.5c12.9,11.5,31.6,18.8,52.7,18.8c21,0,39.8-7.3,52.6-18.8H849c0,0,0-474.5,0-503.9l-57.3,118.6V880.6z M429.2,914.4c-30.9-12.6-137.1-53.1-243.4-53.1c-42,0-79.2,6.5-111,19.2V390.7c18.5-6.2,69-20.7,131.1-20.7c81.7,0,151.9,24.7,209.2,72.9v292.4l14.1-15.6V914.4z"/><path d="M122.4,455.1l5,18.9c125.4-33.3,238.4,28.3,239.5,28.9l9.5-17.1C371.5,483.2,255.6,419.8,122.4,455.1z"/><path d="M122.4,510.3l5,18.8c125.4-33.3,238.4,28.3,239.5,28.9l9.5-17C371.5,538.4,255.6,475,122.4,510.3z"/><path d="M122.4,562.2l5,18.9c125.4-33.2,238.4,28.3,239.5,28.9l9.5-17C371.5,590.2,255.6,526.9,122.4,562.2z"/><path d="M122.4,619.1l5,18.8c125.4-33.3,238.4,28.3,239.5,28.9l9.5-17C371.5,647.1,255.6,583.7,122.4,619.1z"/><path d="M122.4,671.7l5,18.8c125.4-33.2,238.4,28.3,239.5,28.9l9.5-17C371.5,699.7,255.6,636.4,122.4,671.7z"/><path d="M122.4,725.8l5,18.8c125.4-33.3,238.4,28.3,239.5,28.9l9.5-17.1C371.5,753.9,255.6,690.6,122.4,725.8z"/><path d="M122.4,780l5,18.9c125.4-33.3,238.4,28.3,239.5,28.9l9.5-17C371.5,808.1,255.6,744.7,122.4,780z"/><path d="M848,27l-58.8,120.9l0.3,0.1L607.7,522.4l-15.9,197l155.6-125.7l183.7-377.1l0.2,0.2L990,96L848,27z M736.9,583.4L648,655.1l-35.2-17l8.7-110.4l8.2-17.1l16.3,57.8l36-23.2l7.1,44l53.7-18.2L736.9,583.4z M929,154.4l-89.2-43.3l21.7-44.7l89.2,43.3L929,154.4z"/></g></g><g></g><g></g><g></g><g></g><g></g><g></g><g></g><g></g><g></g><g></g><g></g><g></g><g></g><g></g><g></g></g>
</svg>