<svg width="250" height="250" xmlns="http://www.w3.org/2000/svg">

 <g>
  <title>background</title>
  <rect fill="none" id="canvas_background" height="252" width="252" y="-1" x="-1"/>
 </g>
 <g>
  <title>Layer 1</title>
  <g id="svg_1">
   <path id="svg_2" fill="#231F20" d="m126,17.420005c-59.415,0 -107.58,48.165 -107.58,107.58s48.165,107.58 107.58,107.58s107.58,-48.165 107.58,-107.58s-48.165,-107.58 -107.58,-107.58zm-26.64,22.309c-1.11,1.44 -2.229,2.944 -3.348,4.523c-3.996,5.636 -8.252,12.567 -12.13,20.753c-6.408,-2.564 -11.847,-5.421 -16.197,-8.04c9.37,-7.923 20.119,-13.751 31.675,-17.236zm-39.255,25.154c5.059,3.234 11.71,7.272 19.778,10.51c-4.99,12.863 -8.757,29.347 -9.491,46.347l-34.343,0c1.157,-20 9.578,-41.448 24.056,-56.857zm-24.056,66.857l34.253,0c0.435,19 3.999,32.697 8.871,45.564c-7.75,3.167 -14.158,7.076 -19.068,10.216c-14.479,-15.409 -22.899,-33.78 -24.056,-55.78zm31.613,61.895c4.172,-2.518 9.352,-5.256 15.44,-7.74c4.098,8.746 8.679,16.036 12.963,21.854c0.7,0.951 1.4,1.869 2.098,2.766c-11.111,-3.524 -21.451,-9.222 -30.501,-16.88zm53.338,20.912c-2,-0.105 -4.176,-0.269 -6.063,-0.492c-6.858,-7.068 -15.025,-17.52 -21.768,-31.551c8.106,-2.479 16.831,-4.295 27.831,-4.693l0,36.736zm0,-46.782c-13,0.414 -22.826,3.242 -32.021,6.134c-4.605,-12.07 -8.21,-25.159 -8.635,-42.159l40.656,0l0,36.025zm0,-46.025l-40.567,0c0.732,-16 4.639,-31.458 9.286,-43.361c9.023,2.774 20.281,4.072 31.281,4.475l0,38.886zm0,-48.932c-10,-0.388 -19.29,-2.111 -27.215,-4.478c3.397,-7.022 6.89,-13.011 10.354,-17.93c3.91,-5.552 8.111,-10.189 11.621,-13.916c1.646,-0.182 3.24,-0.32 5.24,-0.412l0,36.736zm61.658,-16.037c-4.372,2.555 -9.798,5.348 -16.137,7.881c-3.832,-8.03 -8.022,-14.845 -11.96,-20.4c-1.119,-1.578 -2.237,-3.083 -3.348,-4.523c11.463,3.456 22.131,9.218 31.445,17.042zm-52.658,-20.699c3,0.092 3.472,0.23 5.118,0.412c3.51,3.727 7.514,8.363 11.423,13.916c3.409,4.842 6.91,10.718 10.263,17.597c-7.93,2.411 -16.804,4.218 -26.804,4.741l0,-36.666zm0,46.714c12,-0.546 21.898,-1.93 30.934,-4.751c4.714,11.972 8.468,27.704 9.208,43.704l-40.142,0l0,-38.953zm0,48.954l40.231,0c-0.385,16 -3.318,29.135 -8.47,42.537c-9.231,-2.952 -18.761,-5.882 -31.761,-6.444l0,-36.093zm5.89,82.31c-1.9,0.226 -2.89,0.391 -5.89,0.497l0,-36.666c12,0.543 19.571,2.463 27.713,5.008c-3.138,6.459 -6.862,12.649 -11.177,18.552c-3.651,4.997 -7.32,9.194 -10.646,12.609zm16.521,-3.536c0.698,-0.897 1.398,-1.815 2.098,-2.766c4.221,-5.732 8.73,-12.894 12.781,-21.469c6.009,2.449 11.176,5.118 15.368,7.568c-8.989,7.552 -19.24,13.177 -30.247,16.667zm37.882,-23.159c-4.929,-3.06 -11.337,-6.189 -19.033,-9.329c4.944,-12.941 8.572,-27.286 9.011,-46.286l34.253,0c-1.161,22 -9.643,40.179 -24.231,55.615zm-10.111,-65.615c-0.742,-17 -4.574,-34.136 -9.635,-47.074c8.015,-3.214 14.666,-6.456 19.746,-9.61c14.587,15.437 23.07,36.684 24.232,56.684l-34.343,0z"/>
  </g>
 </g>
</svg>