<?xml version="1.0" standalone="no"?><svg xmlns="http://www.w3.org/2000/svg" viewBox="0 0 1440 320"><path fill="#0099ff" fill-opacity="1" d="M0,288L34.3,293.3C68.6,299,137,309,206,304C274.3,299,343,277,411,261.3C480,245,549,235,617,234.7C685.7,235,754,245,823,240C891.4,235,960,213,1029,181.3C1097.1,149,1166,107,1234,112C1302.9,117,1371,171,1406,197.3L1440,224L1440,320L1405.7,320C1371.4,320,1303,320,1234,320C1165.7,320,1097,320,1029,320C960,320,891,320,823,320C754.3,320,686,320,617,320C548.6,320,480,320,411,320C342.9,320,274,320,206,320C137.1,320,69,320,34,320L0,320Z"></path></svg>